<svg width="210" height="987" viewBox="0 0 210 987" fill="none" xmlns="http://www.w3.org/2000/svg">
<path fill-rule="evenodd" clip-rule="evenodd" d="M177 0.354248L210 28.5001L177 56.6459V44.5003L175.938 44.5003L170 44.5003C169.917 44.5003 166.318 44.6357 159.845 54.4921C153.81 63.6825 147.721 77.7504 141.62 96.1213C129.854 131.551 119.375 178.726 108.554 227.438L108.554 227.439L107.491 232.222C96.4263 282.014 84.9457 333.079 71.4808 371.692C64.7746 390.922 57.2007 408.206 48.2779 420.963C39.6525 433.294 27.1568 445.001 9.99951 445H0.00894165L0.00896854 413H10.0001H10.0006C11.2174 413 15.3616 412.192 22.0558 402.621C28.4527 393.476 34.8782 379.471 41.2653 361.155C53.9869 324.674 65.0682 275.613 76.2532 225.28C76.6655 223.425 77.0779 221.568 77.4906 219.71L77.5282 219.54L77.5283 219.54C88.1641 171.649 98.9547 123.062 111.251 86.0358C117.619 66.8597 124.749 49.6384 133.098 36.9264C141.008 24.8804 152.957 12.5002 170 12.5003L175.938 12.5003L177 12.5003V0.354248Z" fill="#8BBFF3" fill-opacity="0.3"/>
<path fill-rule="evenodd" clip-rule="evenodd" d="M9.99901 413.005C26.6688 413.005 39.8192 420.708 49.6511 432.175C59.0518 443.139 65.7056 457.782 70.8621 473.382C79.6091 499.845 85.4113 533.642 91.134 566.976C92.1309 572.783 93.1254 578.576 94.1327 584.313C101.117 624.099 108.749 661.59 121.418 689.055C133.966 716.258 149.152 729.155 169.999 729.155L175.749 729.155H177V717.005L210 745.151L177 773.297V761.155H175.749H169.999C130.846 761.155 107.157 734.534 92.3608 702.459C77.6857 670.645 69.5054 629.099 62.6146 589.846C61.5526 583.796 60.521 577.803 59.5033 571.89C53.7311 538.352 48.4044 507.403 40.4789 483.425C35.8386 469.386 30.7815 459.329 25.3581 453.004C20.3659 447.182 15.5791 445.005 9.99909 445.005L9.999 429.019L9.99901 445.005L0.00854492 445.005L0.00855033 413.005L9.99892 413.005L9.99901 413.005Z" fill="#8BBFF3" fill-opacity="0.3"/>
<path fill-rule="evenodd" clip-rule="evenodd" d="M10.0012 413.003C30.5206 413.003 43.5973 428.541 51.7491 444.464C60.2064 460.984 66.3993 483.452 71.3701 508.639C79.8633 551.672 85.517 606.784 91.255 662.717C92.2586 672.501 93.2649 682.309 94.2893 692.082C101.249 758.484 109.054 823.356 122.318 871.517C128.971 895.673 136.646 914.244 145.355 926.464C153.858 938.396 161.93 942.503 170.004 942.503C171.738 942.504 173.373 942.504 174.799 942.504H177.001V930.358L210.001 958.504L177.001 986.65V974.504C175.194 974.504 172.72 974.504 170.002 974.503C148.075 974.502 131.428 962.061 119.295 945.035C107.366 928.297 98.4862 905.499 91.4671 880.014C77.3876 828.894 69.3789 761.391 62.4637 695.418C61.4186 685.448 60.3984 675.513 59.3869 665.663L59.3869 665.663C53.6293 609.593 48.1541 556.274 39.9757 514.835C35.1497 490.381 29.6316 471.483 23.2648 459.046C16.5924 446.013 11.7317 445.003 10.0013 445.003L0.0121871 445.003L0.0121765 413.003L10.0012 413.003Z" fill="#8BBFF3" fill-opacity="0.3"/>
</svg>
