<svg width="32" height="28" viewBox="0 0 32 28" fill="none" xmlns="http://www.w3.org/2000/svg">
<g clip-path="url(#clip0_2917_203)">
<path d="M5.5 1.75V3.5H2.875C1.42578 3.5 0.25 4.67578 0.25 6.125V8.75H24.75V6.125C24.75 4.67578 23.5742 3.5 22.125 3.5H19.5V1.75C19.5 0.782031 18.718 0 17.75 0C16.782 0 16 0.782031 16 1.75V3.5H9V1.75C9 0.782031 8.21797 0 7.25 0C6.28203 0 5.5 0.782031 5.5 1.75ZM24.75 10.5H23.875H0.25V25.375C0.25 26.8242 1.42578 28 2.875 28H18.3406C15.8687 26.2555 14.25 23.3789 14.25 20.125C14.25 14.8094 18.5594 10.5 23.875 10.5C24.1703 10.5 24.4602 10.5109 24.75 10.5383V10.5ZM31.75 20.125C31.75 15.7773 28.2227 12.25 23.875 12.25C19.5273 12.25 16 15.7773 16 20.125C16 24.4727 19.5273 28 23.875 28C28.2227 28 31.75 24.4727 31.75 20.125ZM23.875 15.75C24.3563 15.75 24.75 16.1437 24.75 16.625V19.25H26.5C26.9813 19.25 27.375 19.6437 27.375 20.125C27.375 20.6063 26.9813 21 26.5 21H23.875C23.3937 21 23 20.6063 23 20.125V16.625C23 16.1437 23.3937 15.75 23.875 15.75Z" fill="white"/>
</g>
<defs>
<clipPath id="clip0_2917_203">
<rect width="31.5" height="28" fill="white" transform="translate(0.25)"/>
</clipPath>
</defs>
</svg>
