<svg width="24" height="24" viewBox="0 0 24 24" fill="none" xmlns="http://www.w3.org/2000/svg">
<path d="M15.3089 15.3094C14.723 15.8953 13.7761 15.8953 13.1902 15.3094L9.70734 11.8734L7.05891 14.5594C6.47297 15.1453 5.52609 15.1453 4.94016 14.5594C4.35328 13.9734 4.35328 13.0266 4.94016 12.4406L8.69016 8.69062C9.27609 8.10469 10.223 8.10469 10.8089 8.69062L14.2495 12.1266L16.9402 9.44062L15.3792 7.87969C14.7136 7.21406 15.2152 6 16.2136 6H21.3745C21.998 6 22.4995 6.50156 22.4995 7.125V12.2859C22.4995 13.2844 21.2855 13.7859 20.5777 13.0781L19.0589 11.5594L15.3089 15.3094Z" fill="#E40032"/>
<path d="M1.5 1.5C2.32828 1.5 3 2.17172 3 3V18.75C3 19.1625 3.33562 19.5 3.75 19.5H22.5C23.3297 19.5 24 20.1703 24 21C24 21.8297 23.3297 22.5 22.5 22.5H3.75C1.67906 22.5 0 20.8219 0 18.75V3C0 2.17172 0.671719 1.5 1.5 1.5Z" fill="#002C77"/>
</svg>
