<svg width="24" height="24" viewBox="0 0 24 24" fill="none" xmlns="http://www.w3.org/2000/svg">
<g clip-path="url(#clip0_2917_219)">
<path d="M12 10.5C13.2436 10.5 14.25 9.49359 14.25 8.25C14.25 7.00641 13.2422 6 12 6C10.7578 6 9.75 7.00781 9.75 8.25C9.75 9.49219 10.7578 10.5 12 10.5ZM13.5 12H10.5C9.25781 12 8.25 13.0078 8.25 14.25V16.5C8.25 17.3283 8.92172 18 9.75 18V22.5C9.75 23.3283 10.4217 24 11.25 24H12.75C13.5783 24 14.25 23.3283 14.25 22.5V18C15.0783 18 15.75 17.3283 15.75 16.5V14.25C15.75 13.0078 14.7422 12 13.5 12Z" fill="#E40032"/>
<path d="M18 6C19.6584 6 21 4.65844 21 3C21 1.34156 19.6584 0 18 0C16.3416 0 15 1.34156 15 3C15 4.65844 16.3406 6 18 6ZM6 6C7.65844 6 9 4.65844 9 3C9 1.34156 7.65938 0 6 0C4.34062 0 3 1.34156 3 3C3 4.65844 4.34203 6 6 6ZM23.9719 17.0438L21.7116 9.13125C21.4359 8.16563 20.55 7.5 19.5047 7.5H16.4114C16.1436 7.5 15.8878 7.55358 15.6464 7.64128C15.7219 7.84219 15.75 8.04375 15.75 8.25C15.75 9.20203 15.3933 10.0725 14.8064 10.7348C16.2328 11.2641 17.25 12.6422 17.25 14.25V16.5C17.25 17.6081 16.6462 18.578 15.75 19.0973V22.5C15.75 22.8966 15.6686 23.2734 15.5282 23.6203C15.7922 23.85 16.0828 24 16.5 24H19.5C20.3283 24 21 23.3283 21 22.5V18H23.2495C23.7469 18 24.1078 17.5219 23.9719 17.0438ZM9.19219 10.7344C8.60625 10.0734 8.25 9.20156 8.25 8.25C8.25 8.0362 8.27863 7.82977 8.31314 7.62562C8.05312 7.55156 7.78594 7.5 7.5 7.5H4.5C2.84297 7.5 1.5 8.84531 1.5 10.5V15C1.5 15.8283 2.17172 16.5 3 16.5V22.5C3 23.3283 3.67172 24 4.5 24H7.5C7.87566 24 8.20875 23.8486 8.47172 23.6205C8.32969 23.2734 8.25 22.8984 8.25 22.5V19.0973C7.35469 18.5766 6.75 17.6063 6.75 16.5V14.25C6.75 12.6422 7.76719 11.2641 9.19219 10.7344Z" fill="#002C77"/>
</g>
<defs>
<clipPath id="clip0_2917_219">
<rect width="24" height="24" fill="white"/>
</clipPath>
</defs>
</svg>
