<svg width="35" height="40" viewBox="0 0 35 40" fill="none" xmlns="http://www.w3.org/2000/svg">
<g clip-path="url(#clip0_2917_154)">
<path d="M0 20C0 17.2422 2.23828 15 5 15H30C32.7578 15 35 17.2422 35 20V35C35 37.7578 32.7578 40 30 40H5C2.23828 40 0 37.7578 0 35V20Z" fill="#002C77"/>
<path d="M17.5 5C14.0469 5 11.25 7.79844 11.25 11.25V15H6.25V11.25C6.25 5.03672 11.2891 0 17.5 0C23.7109 0 28.75 5.03672 28.75 11.25V15H23.75V11.25C23.75 7.79844 20.9531 5 17.5 5Z" fill="#002C77"/>
<g clip-path="url(#clip1_2917_154)">
<path d="M16.4002 23.2679C15.829 23.4867 15.5918 23.796 15.529 24.1429C15.4684 24.4773 15.5143 24.6679 15.5693 24.7867C15.6284 24.9117 15.7437 25.0523 15.9734 25.2054C16.4815 25.5398 17.2565 25.7648 18.2627 26.0367C18.2909 26.046 18.3221 26.0523 18.3502 26.0617C19.2377 26.3023 20.3252 26.5992 21.1315 27.1335C21.5721 27.4273 21.9877 27.8242 22.244 28.3742C22.5034 28.9304 22.5596 29.5554 22.4409 30.1929C22.2221 31.4085 21.3784 32.2023 20.3877 32.6148C19.4002 33.0179 18.1909 33.0898 16.9596 32.9054H16.9534C16.194 32.7867 14.9399 32.4585 14.094 32.0835C13.5893 31.8585 13.3621 31.2679 13.5865 30.7617C13.8109 30.2585 14.4018 30.0304 14.8784 30.2554C15.5596 30.546 16.6346 30.8304 17.2565 30.9273C18.2565 31.0773 19.0784 30.9898 19.6346 30.7648C20.1627 30.5492 20.4034 30.2367 20.4721 29.8617C20.5315 29.5273 20.4877 29.3367 20.4315 29.2179C20.3721 29.0929 20.2565 28.9523 20.0284 28.7992C19.519 28.4648 18.744 28.2398 17.7377 27.9679C17.7096 27.9585 17.6784 27.9523 17.6502 27.9429C16.7627 27.7023 15.6746 27.4054 14.8677 26.871C14.4268 26.5773 14.0137 26.1804 13.7571 25.6304C13.4968 25.0742 13.4402 24.4492 13.5612 23.7835C13.7824 22.5679 14.6581 21.7926 15.6865 21.4001C16.694 21.0157 17.9221 20.9554 19.1471 21.1382C19.4784 21.1876 20.4659 21.3467 20.8721 21.4495C21.3784 21.5851 21.7315 22.1304 21.594 22.6648C21.4596 23.1992 20.9159 23.5242 20.3784 23.3898C20.0877 23.2867 19.2034 23.1679 18.8534 23.1179C17.8502 22.9679 16.9909 23.0429 16.4002 23.2679Z" fill="#E40032"/>
<path d="M18 19C18.5531 19 19 19.4478 19 20V21.115C18.3188 21.0244 17.6375 21.01 17 21.0853V20C17 19.4478 17.4469 19 18 19ZM19 32.9563V34C19 34.5531 18.5531 35 18 35C17.4469 35 17 34.5531 17 34V32.9094C17.6844 33.0094 18.3625 33.0281 19 32.9563Z" fill="#E40032"/>
</g>
</g>
<defs>
<clipPath id="clip0_2917_154">
<rect width="35" height="40" fill="white"/>
</clipPath>
<clipPath id="clip1_2917_154">
<rect width="10" height="16" fill="white" transform="translate(13 19)"/>
</clipPath>
</defs>
</svg>
