<svg width="25" height="23" viewBox="0 0 25 23" fill="none" xmlns="http://www.w3.org/2000/svg">
<path d="M14.8195 14.0632L17.1464 19.0752C9.66351 18.0551 4.91167 19.1615 0.572833 22.764C0.527358 22.6171 0.522024 22.4066 0.575933 22.1478C1.28675 18.7353 6.21 13.4864 14.8195 14.0632ZM7.46378 7.57664C7.42857 7.78734 7.4321 7.9979 7.47443 8.13132C8.20643 7.41186 9.50245 6.6386 11.1733 6.21455L9.6945 3.03125C8.49993 4.34009 7.65596 6.42717 7.46378 7.57664ZM4.02502 14.5516C3.96553 14.7668 3.95629 14.9451 3.99767 15.0874C6.68077 12.7922 10.1354 11.6545 13.7485 11.758L11.9935 7.9802C7.71781 8.67049 4.77596 11.8354 4.02502 14.5516Z" fill="#E40032"/>
<path d="M13.826 0.0605469C12.8295 0.452619 11.7595 1.05706 11.0244 1.72686L20.6257 22.3889H24.2026L13.826 0.0605469Z" fill="#002C77"/>
</svg>
