<svg width="187" height="48" viewBox="0 0 187 48" fill="none" xmlns="http://www.w3.org/2000/svg">
<g clip-path="url(#clip0_2917_8)">
<path d="M3.62144 40.2781V47.6979H0.930298V30.0916H10.6639V32.4559H3.62144V37.9138H10.6639V40.2781H3.62144ZM13.214 32.657V29.9659H15.8046V31.3114V32.657H13.214ZM13.214 47.6979V34.9712H15.8046V41.3345V47.6979H13.214ZM21.6085 34.9712L21.6838 36.9831C22.6395 35.4991 24.1738 34.6692 25.8088 34.6692C27.4938 34.6692 28.6761 35.2728 29.4304 36.2789C30.3107 37.4861 30.5622 39.1715 30.5622 41.0828V47.6979H27.9716V41.3091C27.9716 40.1524 27.9215 38.8695 27.368 37.9892C26.9907 37.3856 26.3118 37.0083 25.2805 37.0083C23.9223 37.0083 22.5641 37.9391 21.7342 39.272V47.6979H19.1433V34.9712H21.6085ZM41.3966 47.6979L41.3213 46.415C40.3404 47.5469 39.1584 47.9995 37.5988 47.9995C35.2346 47.9995 33.0717 46.7923 33.0717 44.0759C33.0717 40.8817 35.939 39.8756 38.7055 39.8756C39.3595 39.8756 40.1642 39.951 41.1956 40.1524V39.7751C41.1956 37.9139 40.3404 36.8324 38.303 36.8324C36.8443 36.8324 35.3603 37.3856 34.3041 37.964L33.5747 35.8764C34.9578 35.2227 36.9199 34.6692 38.7055 34.6692C42.3526 34.6692 43.7862 36.6814 43.7862 39.9762V47.6979H41.3966ZM41.1956 41.9632C40.3152 41.787 39.6612 41.7369 39.0327 41.7369C37.5487 41.7369 35.6118 42.1394 35.6118 43.9502C35.6118 45.3837 36.7185 45.9372 37.9761 45.9372C39.2086 45.9372 40.2399 45.3336 41.1956 44.5286V41.9632ZM49.3137 34.9712L49.389 36.9831C50.345 35.4991 51.879 34.6692 53.514 34.6692C55.1993 34.6692 56.3813 35.2728 57.1359 36.2789C58.0162 37.4861 58.2678 39.1715 58.2678 41.0828V47.6979H55.6772V41.3091C55.6772 40.1524 55.6267 38.8695 55.0736 37.9892C54.6963 37.3856 54.017 37.0083 52.9857 37.0083C51.6275 37.0083 50.2693 37.9391 49.4394 39.272V47.6979H46.8488V34.9712H49.3137ZM71.1802 46.6665C70.1741 47.5217 68.7154 47.9995 67.1309 47.9995C63.4589 47.9995 60.6167 45.3336 60.6167 41.3344C60.6167 37.6119 63.4838 34.6692 67.2314 34.6692C68.6902 34.6692 69.973 35.0969 71.0545 35.8764L69.7968 37.9139C69.0675 37.3604 68.1622 37.0083 67.2314 37.0083C65.0181 37.0083 63.2574 38.9449 63.2574 41.3344C63.2574 43.925 65.1187 45.6604 67.2314 45.6604C68.0866 45.6604 69.1683 45.3084 69.8725 44.7552L71.1802 46.6665ZM73.111 32.657V29.9659H75.7019V31.3114V32.657H73.111ZM73.111 47.6979V34.9712H75.7019V41.3344V47.6979H73.111ZM86.6614 47.6979L86.5861 46.415C85.6049 47.5469 84.4229 47.9995 82.8636 47.9995C80.4993 47.9995 78.3361 46.7923 78.3361 44.0759C78.3361 40.8817 81.2035 39.8756 83.9703 39.8756C84.624 39.8756 85.429 39.951 86.4603 40.1524V39.7751C86.4603 37.9139 85.6049 36.8324 83.5677 36.8324C82.109 36.8324 80.6251 37.3856 79.5685 37.964L78.8392 35.8764C80.2226 35.2227 82.1844 34.6692 83.9703 34.6692C87.6171 34.6692 89.0509 36.6814 89.0509 39.9762V47.6979H86.6614ZM86.4603 41.9632C85.58 41.787 84.9259 41.7369 84.2971 41.7369C82.8132 41.7369 80.8766 42.1394 80.8766 43.9502C80.8766 45.3837 81.9833 45.9372 83.2409 45.9372C84.4733 45.9372 85.5043 45.3336 86.4603 44.5286V41.9632ZM94.8551 47.6979H92.2645V28.834H94.8551V38.2659V47.6979Z" fill="#002C77"/>
<path d="M183.302 0C184.823 0 186.053 1.23078 186.053 2.75157C186.053 4.27118 184.823 5.50196 183.302 5.50196C181.782 5.50196 180.552 4.27118 180.552 2.75157C180.552 1.23078 181.782 0 183.302 0ZM183.302 4.91133C184.485 4.91133 185.45 3.93401 185.45 2.75157C185.45 1.56913 184.485 0.591811 183.302 0.591811C182.12 0.591811 181.155 1.56913 181.155 2.75157C181.155 3.93401 182.12 4.91133 183.302 4.91133ZM183.942 4.25939L183.049 3.06516H182.844V4.25939H182.265V1.30387H182.88C183.99 1.30387 184.364 1.56913 184.364 2.18451C184.364 2.54644 184.147 2.90836 183.749 3.0404L184.642 4.25939H183.942ZM182.844 1.77426V2.63014C183.375 2.63014 183.761 2.60656 183.761 2.1963C183.761 1.82259 183.52 1.77426 182.844 1.77426Z" fill="#002C77"/>
<path d="M11.2719 0.125607C4.79908 0.125607 0 5.19074 0 11.445C0 17.6989 4.79908 22.7645 11.2719 22.7645C17.7449 22.7645 22.5442 17.6989 22.5442 11.445C22.5442 5.19074 17.7449 0.125607 11.2719 0.125607ZM11.2719 19.106C7.23819 19.106 4.44023 15.7444 4.44023 11.445C4.44023 7.14532 7.23819 3.78365 11.2719 3.78365C15.306 3.78365 18.1037 7.14532 18.1037 11.445C18.1037 15.7444 15.306 19.106 11.2719 19.106ZM38.6199 7.84881C39.863 9.45279 40.0738 11.5854 40.0738 13.9308V22.3893H35.9619V14.1809C35.9619 12.899 35.9269 11.4627 35.3989 10.4911C34.9579 9.67981 34.148 9.30292 33.085 9.30292C31.6778 9.30292 30.1768 10.1629 29.3011 11.5856V22.3893L25.1892 22.3893V6.11319H28.8322L29.0981 8.42739C30.3957 6.58229 32.3346 5.73794 34.2106 5.73794C36.0713 5.73794 37.6101 6.54583 38.6199 7.84881ZM50.8918 5.73794C46.2482 5.73794 42.6678 9.4905 42.6678 14.3998C42.6678 19.2623 45.9045 22.7645 50.8762 22.7645C54.3158 22.7645 56.4111 21.4826 58.2403 18.8089L55.5042 16.9639C54.4723 18.5899 53.2527 19.4343 51.1419 19.4343C48.6559 19.4343 47.1082 17.605 46.8267 15.2755H58.4748C58.5844 14.6501 58.6625 13.8995 58.6625 13.2741C58.6625 8.92766 55.3635 5.73794 50.8918 5.73794ZM47.0455 12.3987C47.5304 10.4442 48.7811 8.99022 51.0012 8.99022C52.9088 8.99022 54.3629 10.3661 54.4566 12.3987H47.0455ZM108.28 7.8018C109.531 9.4124 109.749 11.5544 109.749 13.9308V22.3893H105.622V14.1809C105.622 12.899 105.609 11.4593 105.09 10.4911C104.655 9.67693 103.855 9.30292 102.792 9.30292C101.557 9.30292 100.228 10.069 99.3366 11.3354C99.4458 12.1328 99.4927 13.0239 99.4927 13.9308V22.3893H95.381V14.1809C95.381 12.899 95.3703 11.4042 94.8182 10.4285C94.3874 9.66714 93.6298 9.30292 92.6448 9.30292C91.4565 9.30292 90.112 10.1472 89.252 11.1948V22.3893H85.14V6.11319H88.7988L89.0329 8.19269C90.3154 6.51973 92.1602 5.73794 93.8174 5.73794C95.3966 5.73794 96.8995 6.42129 97.9103 7.64387C98.1378 7.90542 98.3242 8.18886 98.4923 8.52094C99.9934 6.37926 102.104 5.73794 103.965 5.73794C105.778 5.73794 107.279 6.51992 108.28 7.8018ZM120.61 5.73794C115.966 5.73794 112.385 9.4905 112.385 14.3998C112.385 19.2623 115.622 22.7645 120.594 22.7645C124.034 22.7645 126.129 21.4826 127.958 18.8089L125.222 16.9639C124.19 18.5899 122.971 19.4343 120.86 19.4343C118.374 19.4343 116.826 17.605 116.545 15.2755H128.192C128.302 14.6501 128.38 13.8995 128.38 13.2741C128.38 8.92766 125.081 5.73794 120.61 5.73794ZM116.763 12.3987C117.248 10.4442 118.499 8.99022 120.719 8.99022C122.627 8.99022 124.081 10.3661 124.174 12.3987H116.763ZM138.735 5.73794C139.516 5.73794 140.173 5.86315 140.767 6.06637L139.813 9.77201C139.344 9.52178 138.844 9.4124 138.265 9.4124C136.937 9.4124 135.78 10.1629 135.06 11.3979V22.3893H130.933V6.11319H134.591L134.857 8.34919C135.811 6.80143 137.093 5.73794 138.735 5.73794ZM142.53 0H146.642V1.82931V3.65863H142.53V0ZM142.53 22.3893H146.642V14.2512V6.11319H142.53V22.3893ZM161.122 17.9803L163.295 20.8414C161.778 22.1705 159.871 22.7645 157.619 22.7645C152.851 22.7645 149.348 19.3093 149.348 14.2435C149.348 9.50614 152.835 5.73794 157.76 5.73794C159.871 5.73794 161.716 6.3948 163.248 7.61422L161.168 10.5692C160.262 9.75637 159.214 9.30292 157.979 9.30292C155.415 9.30292 153.538 11.5229 153.538 14.2435C153.538 17.1204 155.508 19.2 157.932 19.2C159.12 19.2 160.199 18.8247 161.122 17.9803ZM172.791 5.73794C170.414 5.73794 167.913 6.3948 165.912 7.37962L167.022 10.3972C168.429 9.66244 170.149 8.97458 171.994 8.97458C174.432 8.97458 175.339 10.2567 175.339 12.3829V12.6957C174.229 12.4611 173.213 12.3517 172.338 12.3517C168.929 12.3517 165.208 13.618 165.208 17.6363C165.208 21.0134 168.022 22.7645 171.055 22.7645C172.853 22.7645 174.464 22.2799 175.574 20.9354L175.84 22.3893H179.451V12.5863C179.451 8.34919 177.356 5.73794 172.791 5.73794ZM175.339 18.3086C174.323 19.1998 173.213 19.8095 171.868 19.8095C170.477 19.8095 169.242 19.0747 169.242 17.5425C169.242 15.5255 171.274 14.9471 172.979 14.9471C173.682 14.9471 174.432 15.041 175.339 15.2442V18.3086Z" fill="#002C77"/>
<path d="M73.8195 14.0632L76.1464 19.0752C68.6635 18.0551 63.9117 19.1615 59.5728 22.764C59.5274 22.6171 59.522 22.4066 59.5759 22.1478C60.2867 18.7353 65.21 13.4864 73.8195 14.0632ZM66.4638 7.57664C66.4286 7.78734 66.4321 7.9979 66.4744 8.13132C67.2064 7.41186 68.5024 6.6386 70.1733 6.21455L68.6945 3.03125C67.4999 4.34009 66.656 6.42717 66.4638 7.57664ZM63.025 14.5516C62.9655 14.7668 62.9563 14.9451 62.9977 15.0874C65.6808 12.7922 69.1354 11.6545 72.7485 11.758L70.9935 7.9802C66.7178 8.67049 63.776 11.8354 63.025 14.5516Z" fill="#E40032"/>
<path d="M72.826 0.0605469C71.8295 0.452619 70.7595 1.05706 70.0244 1.72686L79.6257 22.3889H83.2026L72.826 0.0605469Z" fill="#002C77"/>
</g>
<defs>
<clipPath id="clip0_2917_8">
<rect width="186.053" height="48" fill="white"/>
</clipPath>
</defs>
</svg>
