<svg width="12" height="12" viewBox="0 0 12 12" fill="none" xmlns="http://www.w3.org/2000/svg">
<path d="M9.62592 5.42071L9.89103 5.1556L9.0957 4.36026L7.63876 2.90332L6.84342 2.10799L6.57831 2.3731L6.04809 2.90332L1.37462 7.57679C1.13062 7.82079 0.952317 8.12344 0.85378 8.45424L0.0232541 11.279C-0.0353989 11.476 0.0185618 11.6895 0.166367 11.835C0.314173 11.9805 0.525324 12.0344 0.722398 11.9781L3.54478 11.1476C3.87558 11.049 4.17823 10.8707 4.42223 10.6267L9.0957 5.95328L9.62592 5.42071ZM3.75358 9.37157L3.54009 9.90414C3.44624 9.97687 3.34067 10.0308 3.22805 10.066L1.39339 10.6056L1.933 8.77331C1.96584 8.65835 2.02215 8.55278 2.09488 8.46128L2.62745 8.24778V8.99854C2.62745 9.205 2.79637 9.37392 3.00283 9.37392H3.75358V9.37157ZM8.50917 0.439897L8.17133 0.780085L7.6411 1.31031L7.37365 1.57542L8.16898 2.37075L9.62592 3.82769L10.4213 4.62303L10.6864 4.35792L11.2166 3.82769L11.5568 3.48751C12.1433 2.90098 12.1433 1.9508 11.5568 1.36427L10.6348 0.439897C10.0482 -0.146632 9.09804 -0.146632 8.51151 0.439897H8.50917ZM7.39711 4.38138L4.0187 7.75979C3.87324 7.90525 3.63393 7.90525 3.48847 7.75979C3.34301 7.61433 3.34301 7.37503 3.48847 7.22957L6.86689 3.85116C7.01234 3.7057 7.25165 3.7057 7.39711 3.85116C7.54257 3.99661 7.54257 4.23592 7.39711 4.38138Z" fill="black" fill-opacity="0.9"/>
</svg>
