<svg width="20" height="22" viewBox="0 0 20 22" fill="none" xmlns="http://www.w3.org/2000/svg">
<path d="M16.0487 11.0345L16.4906 10.5927L15.165 9.26711L12.7368 6.83887L11.4112 5.51331L10.9694 5.95517L10.0857 6.83887L2.29657 14.628C1.88991 15.0346 1.59273 15.5391 1.42851 16.0904L0.0442957 20.7983C-0.0534592 21.1267 0.0364753 21.4826 0.282818 21.725C0.52916 21.9674 0.881078 22.0574 1.20954 21.9635L5.9135 20.5793C6.46484 20.4151 6.96926 20.1179 7.37592 19.7112L15.165 11.9221L16.0487 11.0345ZM6.26151 17.6193L5.90568 18.5069C5.74928 18.6281 5.57332 18.7181 5.38563 18.7767L2.32785 19.6761L3.2272 16.6222C3.28194 16.4306 3.37579 16.2546 3.497 16.1021L4.38462 15.7463V16.9976C4.38462 17.3417 4.66615 17.6232 5.01025 17.6232H6.26151V17.6193ZM14.1875 2.73316L13.6244 3.30014L12.7407 4.18385L12.2949 4.6257L13.6205 5.95126L16.0487 8.37949L17.3743 9.70505L17.8162 9.2632L18.6999 8.37949L19.2668 7.81251C20.2444 6.83496 20.2444 5.25133 19.2668 4.27378L17.7301 2.73316C16.7526 1.75561 15.1689 1.75561 14.1914 2.73316H14.1875ZM12.3341 9.3023L6.70336 14.933C6.46093 15.1754 6.06209 15.1754 5.81966 14.933C5.57723 14.6906 5.57723 14.2917 5.81966 14.0493L11.4503 8.41859C11.6928 8.17616 12.0916 8.17616 12.3341 8.41859C12.5765 8.66102 12.5765 9.05986 12.3341 9.3023Z" fill="#002C77"/>
</svg>
