<svg width="30" height="24" viewBox="0 0 30 24" fill="none" xmlns="http://www.w3.org/2000/svg">
<g clip-path="url(#clip0_2917_187)">
<path d="M10.5 12C13.8141 12 16.5 9.31359 16.5 6C16.5 2.68641 13.8141 0 10.5 0C7.18594 0 4.5 2.68641 4.5 6C4.5 9.31359 7.18594 12 10.5 12ZM12.8766 14.25H8.12344C3.63609 14.25 0 17.8875 0 22.3734C0 23.2734 0.7275 24 1.62469 24H19.3734C20.2734 24 21 23.2734 21 22.3734C21 17.8875 17.3625 14.25 12.8766 14.25Z" fill="#002C77"/>
<path d="M22.4581 15H18.9964C21.1503 16.7672 22.5003 19.4109 22.5003 22.3734C22.5003 22.9734 22.3222 23.5266 22.0316 24H28.5003C29.33 24 30.0003 23.325 30.0003 22.4578C30.0003 18.3563 26.6441 15 22.4581 15ZM20.2503 12C23.1519 12 25.5003 9.65156 25.5003 6.75C25.5003 3.84844 23.1519 1.5 20.2503 1.5C19.0733 1.5 17.9984 1.90102 17.1228 2.55516C17.6628 3.59203 18.0003 4.75312 18.0003 6C18.0003 7.665 17.4411 9.19406 16.5195 10.4395C17.4706 11.4 18.7878 12 20.2503 12Z" fill="#E40032"/>
</g>
<defs>
<clipPath id="clip0_2917_187">
<rect width="30" height="24" fill="white"/>
</clipPath>
</defs>
</svg>
